<mxfile host="app.diagrams.net" modified="2024-05-31T00:07:05.624Z" agent="Mozilla/5.0 (Windows NT 10.0; Win64; x64) AppleWebKit/537.36 (KHTML, like Gecko) Chrome/125.0.0.0 Safari/537.36" etag="cBj-fBqKr1KorFmqsmJg" version="24.4.10" type="device" pages="2">
  <diagram id="EGPzPH991RvofBAI0Xg8" name="Diagrama Uso">
    <mxGraphModel dx="3800" dy="1965" grid="1" gridSize="10" guides="1" tooltips="1" connect="1" arrows="1" fold="1" page="1" pageScale="1" pageWidth="827" pageHeight="1169" math="0" shadow="0">
      <root>
        <mxCell id="0" />
        <mxCell id="1" parent="0" />
        <mxCell id="McjTIROcya0h9u3Tb_p8-1" value="" style="html=1;overflow=block;blockSpacing=1;whiteSpace=wrap;container=1;pointerEvents=0;collapsible=0;recursiveResize=0;fontSize=16.7;fontColor=#333333;fontStyle=3;spacing=0;verticalAlign=bottom;strokeColor=#333333;strokeOpacity=100;fillOpacity=0;rounded=1;absoluteArcSize=1;arcSize=7.5;fillColor=#000000;strokeWidth=0.8;lucidId=e.PGFedcTk7H;" vertex="1" parent="1">
          <mxGeometry x="-1360" y="-1040" width="440" height="600" as="geometry" />
        </mxCell>
        <mxCell id="McjTIROcya0h9u3Tb_p8-3" value="Cadastrar Sabre" style="html=1;overflow=block;blockSpacing=1;whiteSpace=wrap;ellipse;fontSize=13.3;fontColor=#ffffff;fontStyle=2;align=center;spacing=0;verticalAlign=middle;strokeColor=#ffffff;strokeOpacity=100;fillOpacity=100;rounded=1;absoluteArcSize=1;arcSize=7.5;fillColor=#3278cc;strokeWidth=0.8;lucidId=e.PGlMRdhsO1;" vertex="1" parent="McjTIROcya0h9u3Tb_p8-1">
          <mxGeometry x="77" y="80" width="293" height="96" as="geometry" />
        </mxCell>
        <mxCell id="McjTIROcya0h9u3Tb_p8-6" value="Ler Dados do Sabre" style="html=1;overflow=block;blockSpacing=1;whiteSpace=wrap;ellipse;fontSize=13.3;fontColor=#ffffff;fontStyle=2;align=center;spacing=0;verticalAlign=middle;strokeColor=#ffffff;strokeOpacity=100;fillOpacity=100;rounded=1;absoluteArcSize=1;arcSize=7.5;fillColor=#3278cc;strokeWidth=0.8;lucidId=KeQG1.O7VS.4;" vertex="1" parent="McjTIROcya0h9u3Tb_p8-1">
          <mxGeometry x="70" y="208" width="293" height="96" as="geometry" />
        </mxCell>
        <mxCell id="McjTIROcya0h9u3Tb_p8-7" value="Atualizar Dados do Sabre" style="html=1;overflow=block;blockSpacing=1;whiteSpace=wrap;ellipse;fontSize=13.3;fontColor=#ffffff;fontStyle=2;align=center;spacing=0;verticalAlign=middle;strokeColor=#ffffff;strokeOpacity=100;fillOpacity=100;rounded=1;absoluteArcSize=1;arcSize=7.5;fillColor=#3278cc;strokeWidth=0.8;lucidId=gfQGH5ht8FmL;" vertex="1" parent="McjTIROcya0h9u3Tb_p8-1">
          <mxGeometry x="77" y="336" width="293" height="96" as="geometry" />
        </mxCell>
        <mxCell id="McjTIROcya0h9u3Tb_p8-8" value="Remover Sabre" style="html=1;overflow=block;blockSpacing=1;whiteSpace=wrap;ellipse;fontSize=13.3;fontColor=#ffffff;fontStyle=2;align=center;spacing=0;verticalAlign=middle;strokeColor=#ffffff;strokeOpacity=100;fillOpacity=100;rounded=1;absoluteArcSize=1;arcSize=7.5;fillColor=#3278cc;strokeWidth=0.8;lucidId=lfQGURhHhF2G;" vertex="1" parent="McjTIROcya0h9u3Tb_p8-1">
          <mxGeometry x="77" y="464" width="293" height="96" as="geometry" />
        </mxCell>
        <mxCell id="McjTIROcya0h9u3Tb_p8-11" value="Controle de Sabres" style="text;align=center;verticalAlign=middle;whiteSpace=wrap;rounded=0;strokeWidth=14;fontSize=36;html=1;fontStyle=5" vertex="1" parent="McjTIROcya0h9u3Tb_p8-1">
          <mxGeometry x="53.5" y="20" width="333" height="30" as="geometry" />
        </mxCell>
        <mxCell id="McjTIROcya0h9u3Tb_p8-2" value="&lt;font style=&quot;font-size: 20px;&quot;&gt;&lt;b&gt;Mestre Jedi&lt;/b&gt;&lt;/font&gt;" style="html=1;overflow=block;blockSpacing=1;shape=umlActor;labelPosition=center;verticalLabelPosition=bottom;verticalAlign=top;whiteSpace=nowrap;fontSize=13.3;fontColor=#333333;fontStyle=2;spacing=0;strokeColor=#333333;strokeOpacity=100;rounded=1;absoluteArcSize=1;arcSize=7.5;fillColor=#ffffff;strokeWidth=0.8;lucidId=e.PGH8TfTXpl;" vertex="1" parent="1">
          <mxGeometry x="-1600" y="-860" width="120" height="240" as="geometry" />
        </mxCell>
        <mxCell id="McjTIROcya0h9u3Tb_p8-4" value="" style="html=1;jettySize=18;whiteSpace=wrap;fontSize=13;strokeColor=#333333;strokeOpacity=100;strokeWidth=0.8;rounded=0;startArrow=none;endArrow=none;entryX=-0.001;entryY=0.5;entryPerimeter=0;lucidId=e.PGWgc7S97z;exitX=1;exitY=0.3333333333333333;exitDx=0;exitDy=0;exitPerimeter=0;" edge="1" parent="1" source="McjTIROcya0h9u3Tb_p8-2" target="McjTIROcya0h9u3Tb_p8-3">
          <mxGeometry width="100" height="100" relative="1" as="geometry">
            <Array as="points" />
            <mxPoint x="-1440" y="-800" as="sourcePoint" />
          </mxGeometry>
        </mxCell>
        <mxCell id="McjTIROcya0h9u3Tb_p8-5" value="" style="html=1;jettySize=18;whiteSpace=wrap;fontSize=13;strokeColor=#333333;strokeOpacity=100;strokeWidth=0.8;rounded=0;startArrow=none;endArrow=none;exitX=1;exitY=0.3333333333333333;exitPerimeter=0;entryX=-0.001;entryY=0.5;entryPerimeter=0;lucidId=e.PGAvSjc0kk;exitDx=0;exitDy=0;" edge="1" parent="1" source="McjTIROcya0h9u3Tb_p8-2" target="McjTIROcya0h9u3Tb_p8-6">
          <mxGeometry width="100" height="100" relative="1" as="geometry">
            <Array as="points" />
          </mxGeometry>
        </mxCell>
        <mxCell id="McjTIROcya0h9u3Tb_p8-9" value="" style="html=1;jettySize=18;whiteSpace=wrap;fontSize=13;strokeColor=#333333;strokeOpacity=100;strokeWidth=0.8;rounded=0;startArrow=none;endArrow=none;entryX=-0.001;entryY=0.5;entryPerimeter=0;lucidId=RfQG3K7RflVh;exitX=1;exitY=0.3333333333333333;exitDx=0;exitDy=0;exitPerimeter=0;" edge="1" parent="1" source="McjTIROcya0h9u3Tb_p8-2" target="McjTIROcya0h9u3Tb_p8-7">
          <mxGeometry width="100" height="100" relative="1" as="geometry">
            <Array as="points" />
            <mxPoint x="-1400" y="-800" as="sourcePoint" />
          </mxGeometry>
        </mxCell>
        <mxCell id="McjTIROcya0h9u3Tb_p8-10" value="" style="html=1;jettySize=18;whiteSpace=wrap;fontSize=13;strokeColor=#333333;strokeOpacity=100;strokeWidth=0.8;rounded=0;startArrow=none;endArrow=none;exitX=1;exitY=0.3333333333333333;exitPerimeter=0;entryX=-0.001;entryY=0.5;entryPerimeter=0;lucidId=5fQG4ZxMKqZa;exitDx=0;exitDy=0;" edge="1" parent="1" source="McjTIROcya0h9u3Tb_p8-2" target="McjTIROcya0h9u3Tb_p8-8">
          <mxGeometry width="100" height="100" relative="1" as="geometry">
            <Array as="points" />
            <mxPoint x="-1400.0000000000002" y="-800" as="sourcePoint" />
          </mxGeometry>
        </mxCell>
        <mxCell id="WjB_UyVy3kHZV4jQ7kPf-1" value="DIAGRAMA DE USO" style="text;strokeColor=none;fillColor=none;html=1;fontSize=36;fontStyle=1;verticalAlign=middle;align=center;" vertex="1" parent="1">
          <mxGeometry x="-1443" y="-1120" width="405" height="40" as="geometry" />
        </mxCell>
      </root>
    </mxGraphModel>
  </diagram>
  <diagram id="olujo_oDdhYueyMy-y02" name="Diagrama Classe">
    <mxGraphModel dx="1252" dy="464" grid="1" gridSize="10" guides="1" tooltips="1" connect="1" arrows="1" fold="1" page="1" pageScale="1" pageWidth="827" pageHeight="1169" math="0" shadow="0">
      <root>
        <mxCell id="0" />
        <mxCell id="1" parent="0" />
        <mxCell id="aiXmtoWtU1XPanMrAHFx-1" value="Sabres" style="swimlane;fontStyle=1;align=center;verticalAlign=top;childLayout=stackLayout;horizontal=1;startSize=26;horizontalStack=0;resizeParent=1;resizeParentMax=0;resizeLast=0;collapsible=1;marginBottom=0;whiteSpace=wrap;html=1;fontSize=14;" vertex="1" parent="1">
          <mxGeometry x="319" y="120" width="201" height="220" as="geometry" />
        </mxCell>
        <mxCell id="aiXmtoWtU1XPanMrAHFx-2" value="- id: inteiro&lt;br style=&quot;font-size: 14px;&quot;&gt;- tipo: string&lt;div style=&quot;font-size: 14px;&quot;&gt;- data fabricacao:&amp;nbsp; string&lt;/div&gt;&lt;div style=&quot;font-size: 14px;&quot;&gt;- status: string&lt;/div&gt;&lt;div style=&quot;font-size: 14px;&quot;&gt;- jedi: string&lt;/div&gt;" style="text;strokeColor=none;fillColor=none;align=left;verticalAlign=top;spacingLeft=4;spacingRight=4;overflow=hidden;rotatable=0;points=[[0,0.5],[1,0.5]];portConstraint=eastwest;whiteSpace=wrap;html=1;fontSize=14;" vertex="1" parent="aiXmtoWtU1XPanMrAHFx-1">
          <mxGeometry y="26" width="201" height="94" as="geometry" />
        </mxCell>
        <mxCell id="aiXmtoWtU1XPanMrAHFx-3" value="" style="line;strokeWidth=1;fillColor=none;align=left;verticalAlign=middle;spacingTop=-1;spacingLeft=3;spacingRight=3;rotatable=0;labelPosition=right;points=[];portConstraint=eastwest;strokeColor=inherit;" vertex="1" parent="aiXmtoWtU1XPanMrAHFx-1">
          <mxGeometry y="120" width="201" height="8" as="geometry" />
        </mxCell>
        <mxCell id="aiXmtoWtU1XPanMrAHFx-4" value="+ salvar()&lt;div style=&quot;font-size: 14px;&quot;&gt;+ listarTodos()&lt;/div&gt;&lt;div style=&quot;font-size: 14px;&quot;&gt;+ buscarPorId()&lt;/div&gt;&lt;div style=&quot;font-size: 14px;&quot;&gt;+ atualizar()&lt;/div&gt;&lt;div style=&quot;font-size: 14px;&quot;&gt;+ deletar()&lt;/div&gt;" style="text;strokeColor=none;fillColor=none;align=left;verticalAlign=top;spacingLeft=4;spacingRight=4;overflow=hidden;rotatable=0;points=[[0,0.5],[1,0.5]];portConstraint=eastwest;whiteSpace=wrap;html=1;fontSize=14;" vertex="1" parent="aiXmtoWtU1XPanMrAHFx-1">
          <mxGeometry y="128" width="201" height="92" as="geometry" />
        </mxCell>
        <mxCell id="aiXmtoWtU1XPanMrAHFx-7" value="DIAGRAMA DE CLASSE" style="text;strokeColor=none;fillColor=none;html=1;fontSize=24;fontStyle=1;verticalAlign=middle;align=center;" vertex="1" parent="1">
          <mxGeometry x="266.75" y="40" width="305.5" height="40" as="geometry" />
        </mxCell>
      </root>
    </mxGraphModel>
  </diagram>
</mxfile>
